<svg width="96" height="96" viewBox="0 0 96 96" xmlns="http://www.w3.org/2000/svg" aria-label="Hannya">
  <defs>
    <linearGradient id="g" x1="0" y1="0" x2="1" y2="1">
      <stop offset="0%" stop-color="#7c3aed"/>
      <stop offset="100%" stop-color="#a78bfa"/>
    </linearGradient>
  </defs>
  <circle cx="48" cy="48" r="44" fill="url(#g)" opacity="0.15" stroke="#7c3aed"/>
  <path d="M30 60c4 8 14 12 18 12s14-4 18-12c2-4-2-10-6-10-3 0-6 2-12 2s-9-2-12-2c-4 0-8 6-6 10z" fill="#7c3aed"/>
  <path d="M36 40c0 4-3 7-7 7s-7-3-7-7 3-7 7-7 7 3 7 7zm38 0c0 4-3 7-7 7s-7-3-7-7 3-7 7-7 7 3 7 7z" fill="#7c3aed"/>
  <path d="M24 28l6-8m42 8l-6-8" stroke="#a78bfa" stroke-width="4" stroke-linecap="round"/>
</svg>